<svg width="14" height="17" viewBox="0 0 14 17" fill="none" xmlns="http://www.w3.org/2000/svg">
<path d="M13.2 17H0.400024V15.4C0.400024 14.3391 0.821452 13.3217 1.5716 12.5716C2.32174 11.8214 3.33916 11.4 4.40002 11.4H9.20002C10.2609 11.4 11.2783 11.8214 12.0285 12.5716C12.7786 13.3217 13.2 14.3391 13.2 15.4V17ZM6.80002 9.80001C6.16968 9.80001 5.54551 9.67586 4.96314 9.43463C4.38078 9.19341 3.85163 8.83985 3.40591 8.39412C2.96019 7.9484 2.60663 7.41926 2.3654 6.83689C2.12418 6.25453 2.00002 5.63036 2.00002 5.00001C2.00002 4.36967 2.12418 3.74549 2.3654 3.16313C2.60663 2.58077 2.96019 2.05162 3.40591 1.6059C3.85163 1.16018 4.38078 0.806613 4.96314 0.56539C5.54551 0.324168 6.16968 0.200012 6.80002 0.200012C8.07306 0.200012 9.29396 0.705725 10.1941 1.6059C11.0943 2.50607 11.6 3.72697 11.6 5.00001C11.6 6.27305 11.0943 7.49395 10.1941 8.39412C9.29396 9.2943 8.07306 9.80001 6.80002 9.80001Z" fill="white"/>
</svg>
